<svg xmlns="http://www.w3.org/2000/svg" viewBox="0 0 101.36 66.6"><defs><style>.cls-1{fill:#231f20;}.cls-2{fill:#fff;}</style></defs><g id="Layer_2" data-name="Layer 2"><g id="Layer_1-2" data-name="Layer 1"><path class="cls-1" d="M3.12,59.82c.46-4.32.82-8.68,1.06-13s.37-8.67.37-13.06-.13-8.66-.37-12.93-.6-8.7-1.06-13.14L2.83,5H5.6c1.39,0,2.72,0,4,0s2.55-.06,3.86-.11,2.68-.12,4.11-.22l4.95-.37L25.38,4l-.2,2.89c-.25,3.66-.45,7.4-.59,11.11s-.21,7.45-.21,11.18V32.8c2.46,0,5,0,7.6-.15,1.86-.07,3.72-.17,5.55-.3l0-1.87c0-1.37,0-2.74,0-4.1,0-3.07,0-6.18-.09-9.27s-.14-6.19-.26-9.27l-.09-2.6h5.93q1.31,0,2.55,0c.84,0,1.76-.06,2.77-.11s2.3-.11,3.89-.2l2.81-.17-.17,2.81c-.44,7.19-.77,14.4-1,21.44s-.32,14.19-.32,21.23V55c0,1.55,0,3.14.07,4.71l.08,2.57H51.2c-1.29,0-2.64,0-4.05,0l-3.9.12-4.12.18-2.77.1.18-2.76c.19-2.88.35-5.79.47-8.65.1-2.06.17-4.13.23-6.2-2.28,0-4.7.12-7.19.34-1.79.16-3.54.33-5.25.5.09,1.89.18,3.78.28,5.65.14,2.63.32,5.31.52,8l.22,2.82L23,62.24l-3.07-.13c-1,0-1.91,0-2.87,0-1.77,0-3.57,0-5.35.16s-3.82.22-5.94.36l-3,.2Z"/><path class="cls-2" d="M22.69,6.72q-.39,5.59-.6,11.2c-.14,3.74-.21,7.49-.21,11.27V35.3H24.2c2.56,0,5.18,0,7.88-.15s5.34-.27,7.94-.48c0-1.38,0-2.76,0-4.15s0-2.76,0-4.14q0-4.68-.09-9.32c0-3.1-.14-6.2-.26-9.32h3.34c.89,0,1.76,0,2.62,0s1.79-.06,2.81-.11l3.92-.21q-.66,10.86-1,21.52t-.32,21.3V55c0,1.57,0,3.16.07,4.78-1.31,0-2.68,0-4.11,0l-3.94.12L39,60.09c.19-2.91.34-5.81.47-8.7s.23-5.81.3-8.74c-.4,0-.8,0-1.19,0s-.81,0-1.23,0q-3.63,0-7.56.35c-2.63.24-5.17.48-7.63.74q.16,4,.38,8c.15,2.66.32,5.33.53,8L20,59.62c-1,0-2-.06-3-.06-1.82,0-3.66.06-5.5.16l-6,.37Q6.31,53.52,6.68,47t.37-13.2q0-6.57-.37-13.08T5.6,7.46c1.41,0,2.75,0,4,0s2.58-.06,3.9-.11,2.73-.12,4.2-.23,3.13-.23,5-.37m5.39-5.43-5.77.45-4.93.36c-1.41.11-2.77.18-4,.22s-2.57.08-3.81.11-2.57,0-3.94,0H.06L.63,8c.46,4.4.81,8.78,1,13s.37,8.53.37,12.79-.13,8.69-.37,12.92-.59,8.57-1,12.85L0,65.47l5.93-.39,5.92-.37c1.74-.1,3.49-.15,5.21-.15.93,0,1.86,0,2.78,0l3.05.12,5.65.25-.44-5.63c-.21-2.64-.38-5.3-.52-7.91-.06-1.08-.12-2.17-.17-3.26l2.86-.27c1.5-.13,3-.22,4.39-.28,0,1.18-.09,2.36-.14,3.54-.13,2.84-.29,5.74-.47,8.6l-.36,5.51,5.52-.19,4.16-.18q1.76-.07,3.84-.12c1.38,0,2.73-.05,4-.05h5.15l-.15-5.15c-.05-1.54-.07-3.1-.07-4.63V50.21c0-7,.11-14.14.32-21.16s.53-14.2,1-21.35l.35-5.63-5.63.33-3.86.21c-1,0-1.89.08-2.71.1s-1.65,0-2.49,0H34.55l.19,5.19c.12,3.07.21,6.18.27,9.22s.08,6.18.08,9.23c0,1.17,0,2.39,0,3.62q-1.58.09-3.18.15c-1.69.07-3.36.11-5,.14v-1.1c0-3.7.07-7.42.21-11.08s.34-7.4.59-11l.4-5.78Z"/><path class="cls-1" d="M57.84,60.87v-2.5c0-1.47,0-2.92,0-4.37s0-2.82,0-4.21c0-4.6-.11-9.22-.33-13.73S57,27,56.55,22.48l-.28-2.75H75.19l-.27,2.74c-.5,5.15-.85,10.3-1,15.31S73.64,47.92,73.64,53v2.69c0,.87,0,1.74.06,2.6l.14,2.63Zm6.9-41.63A11.38,11.38,0,0,1,61,18.63,10.73,10.73,0,0,1,57.86,17a8.64,8.64,0,0,1-2.27-2.63,7.19,7.19,0,0,1,0-7,8.6,8.6,0,0,1,2.27-2.62A10.36,10.36,0,0,1,61,3.09a11.83,11.83,0,0,1,3.75-.59,12,12,0,0,1,3.76.58,11,11,0,0,1,3.19,1.63A8.37,8.37,0,0,1,74,7.35a7.06,7.06,0,0,1,.92,3.49A7.14,7.14,0,0,1,74,14.36,8.37,8.37,0,0,1,71.69,17a11.19,11.19,0,0,1-3.17,1.64A11.83,11.83,0,0,1,64.74,19.24Z"/><path class="cls-2" d="M64.74,5a9.5,9.5,0,0,1,3,.46,8.38,8.38,0,0,1,2.46,1.25,5.84,5.84,0,0,1,1.65,1.86,4.56,4.56,0,0,1,.6,2.27,4.65,4.65,0,0,1-.6,2.3A6.05,6.05,0,0,1,70.19,15a8.93,8.93,0,0,1-2.46,1.27,9.5,9.5,0,0,1-3,.47,9.18,9.18,0,0,1-3-.47A8.37,8.37,0,0,1,59.39,15a6,6,0,0,1-1.61-1.86,4.65,4.65,0,0,1-.6-2.3,4.56,4.56,0,0,1,.6-2.27,5.83,5.83,0,0,1,1.61-1.86,7.86,7.86,0,0,1,2.39-1.25,9.18,9.18,0,0,1,3-.46m7.7,17.23q-.78,7.83-1,15.47T71.14,53v2.69c0,.9,0,1.81.07,2.73H60.34c0-1.46,0-2.9,0-4.33s0-2.84,0-4.25q0-7-.33-13.85T59,22.23h13.4M64.74,0A14.48,14.48,0,0,0,60.2.71a13.23,13.23,0,0,0-3.87,2,11.22,11.22,0,0,0-2.92,3.38,9.69,9.69,0,0,0,0,9.45,11.47,11.47,0,0,0,1.13,1.65h-1l.57,5.51c.45,4.45.8,9,1,13.44s.33,9,.33,13.61c0,1.34,0,2.75,0,4.17s0,2.93,0,4.41v5H76.47l-.27-5.26c0-.82-.06-1.65-.06-2.47V53c0-5,.08-10.08.26-15.08s.51-10.06,1-15.15L78,17.23H75.07a11.1,11.1,0,0,0,1.14-1.66,9.65,9.65,0,0,0,0-9.43,10.88,10.88,0,0,0-3-3.43,13.45,13.45,0,0,0-3.92-2A14.85,14.85,0,0,0,64.74,0Z"/><path class="cls-1" d="M86.18,64.1a10.7,10.7,0,0,1-3.33-.51,9.57,9.57,0,0,1-2.79-1.44A7.35,7.35,0,0,1,78,59.76a6.6,6.6,0,0,1-.79-3.15,6.44,6.44,0,0,1,.8-3.12,7.94,7.94,0,0,1,2-2.35,9.29,9.29,0,0,1,2.81-1.48,10.46,10.46,0,0,1,2.33-.46H78.74V46.71c0-6.61-.32-13.27-.79-19.77S76.7,13.86,75.66,7.33l-.46-2.9H98.3l-.6,3c-1.31,6.54-2.31,13.15-3,19.64S93.66,40.2,93.5,46.76l-.06,2.44H87.17a9.68,9.68,0,0,1,2.3.47,9.23,9.23,0,0,1,2.78,1.47,7.66,7.66,0,0,1,2,2.35,6.44,6.44,0,0,1,.8,3.12,6.6,6.6,0,0,1-.79,3.15,7.35,7.35,0,0,1-2.06,2.39,9.65,9.65,0,0,1-2.76,1.44A10.45,10.45,0,0,1,86.18,64.1Z"/><path class="cls-2" d="M95.25,6.93q-2,10-3,19.88T91,46.7H81.23q-.08-10.06-.8-19.94T78.13,6.93H95.25M86.18,51.65a7.84,7.84,0,0,1,2.5.39,6.83,6.83,0,0,1,2,1.07,5.37,5.37,0,0,1,1.37,1.58,3.92,3.92,0,0,1,.49,1.92,4.08,4.08,0,0,1-.49,2,5,5,0,0,1-1.37,1.58,7,7,0,0,1-2,1.05,7.84,7.84,0,0,1-2.5.39,8.11,8.11,0,0,1-2.55-.39,6.84,6.84,0,0,1-2-1.05,4.78,4.78,0,0,1-1.37-1.58,4.09,4.09,0,0,1-.5-2,3.93,3.93,0,0,1,.5-1.92,5.09,5.09,0,0,1,1.37-1.58,6.65,6.65,0,0,1,2-1.07,8.11,8.11,0,0,1,2.55-.39M101.36,1.93H72.27l.92,5.79c1,6.46,1.79,13,2.26,19.41s.73,13,.78,19.6l0,4.84c-.16.23-.3.47-.44.72a8.9,8.9,0,0,0-1.11,4.32A9.07,9.07,0,0,0,75.8,61a10,10,0,0,0,2.75,3.19A12,12,0,0,0,82.07,66a13,13,0,0,0,4.11.64A12.77,12.77,0,0,0,90.26,66a11.89,11.89,0,0,0,3.48-1.82A9.87,9.87,0,0,0,96.49,61a9.07,9.07,0,0,0,1.09-4.34,8.82,8.82,0,0,0-1.11-4.32,9.86,9.86,0,0,0-.58-.94L96,46.82c.16-6.49.57-13,1.22-19.5s1.64-12.94,2.93-19.4l1.21-6Z"/></g></g></svg>