<svg xmlns="http://www.w3.org/2000/svg" viewBox="0 0 374.3 135.74"><defs><style>.cls-1{fill:#231f20;}.cls-2{fill:#fff;}</style></defs><g id="Layer_2" data-name="Layer 2"><g id="Layer_1-2" data-name="Layer 1"><path class="cls-1" d="M8.66,69.94c-.24-6-.58-12-1-17.91s-1-11.9-1.74-17.83Q5.62,31.87,5.36,30C5.2,28.71,5,27.48,4.84,26.3s-.39-2.41-.62-3.66-1.15-6.18-1.15-6.18l2-.82a63.45,63.45,0,0,1,9.68-3.1A83.76,83.76,0,0,1,25,10.81c1.79-.19,3.76-.31,5.84-.36a41.22,41.22,0,0,1,6.55.4,31.92,31.92,0,0,1,6.5,1.64,19.91,19.91,0,0,1,6,3.45,18,18,0,0,1,4.46,5.69,21.88,21.88,0,0,1,2.16,8.08A21.5,21.5,0,0,1,54.9,40.34a21.87,21.87,0,0,1-6.18,8.08A34.59,34.59,0,0,1,39,53.9a63.67,63.67,0,0,1-9.75,2.8c.23,1.08.46,2.17.68,3.27.4,1.94.85,4,1.35,6.1.24,1,.36,1.53.59,2.55-9.23,1.62-13.85,2.46-23,4.22C8.73,71.68,8.71,71.1,8.66,69.94ZM24.39,27.4q.36,3.13.78,6.23t.89,6.25c.2,1.34.42,2.72.65,4.12,1.78-.21,3.57-.47,5.34-.76,1.46-.24,2.88-.52,4.24-.83.06-.83.08-1.76.06-2.8,0-1.85-.15-3.85-.36-6-.14-1.3-.31-2.63-.52-3.95s-.44-2.61-.69-3.82A33.44,33.44,0,0,0,34,22.64c-.09-.3-.18-.58-.27-.85l-.68.06c-1.11.11-2.33.28-3.63.48L25.55,23l-1.63.29C24.07,24.65,24.23,26,24.39,27.4Z"/><path class="cls-2" d="M25.23,13.3c1.71-.19,3.58-.3,5.59-.35a36.41,36.41,0,0,1,6.06.38,29.06,29.06,0,0,1,5.91,1.48,17.44,17.44,0,0,1,5.19,3,15.62,15.62,0,0,1,3.85,4.92A19.35,19.35,0,0,1,53.75,30a19.07,19.07,0,0,1-1.33,9.47A19.21,19.21,0,0,1,47,46.55a31.53,31.53,0,0,1-9,5,65.14,65.14,0,0,1-11.92,3.17q.62,2.79,1.21,5.72c.41,2,.86,4,1.37,6.16C21.7,67.87,18.23,68.5,11.3,69.81q-.35-9.06-1-18T8.59,33.88c-.19-1.56-.36-3-.53-4.26s-.34-2.52-.53-3.72-.39-2.45-.62-3.72-.49-2.69-.78-4.26a59.68,59.68,0,0,1,9.22-3,81.73,81.73,0,0,1,9.88-1.66m-.76,33.47,1.39-.16c2.2-.24,4.4-.54,6.62-.9a63.33,63.33,0,0,0,6.27-1.34A26,26,0,0,0,39,39.54c0-1.93-.15-4-.36-6.15-.14-1.35-.31-2.71-.53-4.08s-.44-2.68-.7-3.92a35.13,35.13,0,0,0-.87-3.47,24,24,0,0,0-1-2.71c-.36,0-.78,0-1.25,0s-1,.06-1.59.12c-1.17.12-2.44.29-3.79.5l-3.85.63L21,21.23c.25,2.21.49,4.37.74,6.48s.51,4.2.79,6.28.59,4.17.91,6.28.68,4.28,1.08,6.5M24.7,8.33a88.25,88.25,0,0,0-10.61,1.78A65.72,65.72,0,0,0,4,13.37L0,15c.29,1.55.44,2.32.73,3.87s.57,3,.8,4.23.43,2.43.61,3.59.36,2.36.53,3.63S3,33,3.21,34.53C3.94,40.42,4.53,46.38,5,52.24s.8,11.88,1,17.83l.25,5.8c2.4-.47,3.6-.7,6-1.15,6.91-1.31,10.36-1.94,17.29-3.16l5.45-1c-.48-2-.71-3.06-1.19-5.11s-.93-4.12-1.32-6l-.18-.9a66.08,66.08,0,0,0,7.61-2.35,37.09,37.09,0,0,0,10.54-5.94,24.42,24.42,0,0,0,6.91-9,23.72,23.72,0,0,0,1.76-11.8,24.09,24.09,0,0,0-2.38-8.94,20.44,20.44,0,0,0-5.07-6.45,22.8,22.8,0,0,0-6.78-3.92,35.65,35.65,0,0,0-7.08-1.78,42.74,42.74,0,0,0-7-.43c-2.18,0-4.23.18-6.09.38Zm2.18,16.94,2.92-.47c.65-.11,1.27-.2,1.88-.28.15.6.3,1.22.44,1.88.24,1.17.46,2.42.67,3.71s.38,2.57.51,3.83c.21,2,.33,4,.36,5.75,0,.25,0,.49,0,.72-.67.13-1.35.26-2,.37-.88.14-1.77.28-2.65.4-.09-.57-.17-1.13-.26-1.68-.3-2-.6-4.14-.87-6.21s-.52-4.1-.76-6.2l-.21-1.82Z"/><path class="cls-1" d="M81.07,65.89a33.48,33.48,0,0,1-9.13-.54,20.56,20.56,0,0,1-8.1-3.54,20,20,0,0,1-5.86-7,28.49,28.49,0,0,1-2.8-10.61,19.78,19.78,0,0,1,1.21-9.39,18.72,18.72,0,0,1,4.94-6.93,22.44,22.44,0,0,1,7.56-4.34,34.79,34.79,0,0,1,8.94-1.82,33.44,33.44,0,0,1,9.4.58,21.71,21.71,0,0,1,8.17,3.51,18.94,18.94,0,0,1,5.77,6.68,23.77,23.77,0,0,1,2.48,9.75l.2,3.53c-4.59.61-6.88.92-11.46,1.57,4.6-.21,6.9-.3,11.5-.47-.32,1.27-.49,1.91-.81,3.19A19.14,19.14,0,0,1,95,61.63a23.57,23.57,0,0,1-6.53,3A36.93,36.93,0,0,1,81.07,65.89Zm-5.14-12.1c1.42,0,2.82-.11,4.16-.21,1.09-.08,2.14-.18,3.15-.28l.83-.09c0-.15,0-.3,0-.44,0-.4-.06-.79-.1-1.17a5.67,5.67,0,0,0-.16-.9c-.2-.83-.31-1.24-.51-2.07-3.32.49-5,.74-8.3,1.25.12.55.24,1.1.37,1.65C75.52,52.28,75.71,53,75.93,53.79Zm7.15-16.71a34,34,0,0,0-.71-3.59,31.48,31.48,0,0,0-4.55,0,35.43,35.43,0,0,0-4.51.63c0,.64,0,1.28,0,1.92s.05,1.13.08,1.72C77.29,37.49,79.22,37.35,83.08,37.08Z"/><path class="cls-2" d="M78,24.19a30.59,30.59,0,0,1,8.58.53,19,19,0,0,1,7.15,3.05,16.54,16.54,0,0,1,5,5.82A21.25,21.25,0,0,1,101,42.37l.08,1.23q-14.61,1.95-29.17,4.22c.23,1.44.52,2.87.86,4.27s.73,2.83,1.19,4.25c2.2,0,4.31-.12,6.35-.27,1.11-.08,2.19-.18,3.23-.29s2.12-.23,3.23-.38c0-.47,0-.94,0-1.41s0-.94-.06-1.41-.07-.83-.11-1.24a9.18,9.18,0,0,0-.21-1.24c5.64-.27,8.47-.4,14.11-.62a16.56,16.56,0,0,1-7,10.1A20.67,20.67,0,0,1,87.7,62.2a33,33,0,0,1-6.81,1.19,29.94,29.94,0,0,1-8.37-.49,17.81,17.81,0,0,1-7-3.08,17.2,17.2,0,0,1-5.1-6.14A26.07,26.07,0,0,1,57.85,44a17.3,17.3,0,0,1,1.06-8.28,16.1,16.1,0,0,1,4.27-6,19.71,19.71,0,0,1,6.64-3.8A32,32,0,0,1,78,24.19m-7.09,16.3C77,40,80,39.79,86,39.38a35.33,35.33,0,0,0-1.52-8.21A35.45,35.45,0,0,0,77.64,31a40.66,40.66,0,0,0-7,1.17c-.05,1.32-.05,2.66,0,4s.14,2.78.26,4.3m6.73-21.28a37.9,37.9,0,0,0-9.69,2,25.48,25.48,0,0,0-8.49,4.88,21.22,21.22,0,0,0-5.59,7.86,22,22,0,0,0-1.37,10.51,30.88,30.88,0,0,0,3.08,11.48,22.33,22.33,0,0,0,6.62,7.88,23.24,23.24,0,0,0,9.15,4,36.31,36.31,0,0,0,9.9.59A39.1,39.1,0,0,0,89.2,67a26.42,26.42,0,0,0,7.28-3.32,21.62,21.62,0,0,0,9.19-13.07c.27-1.07.41-1.6.68-2.66l.29,0,0-.92c.28-1.1.42-1.65.71-2.76l-.86,0,0-1-.07-1.23a25.94,25.94,0,0,0-2.73-10.72,21.53,21.53,0,0,0-6.52-7.55,24.41,24.41,0,0,0-9.21-4,36.55,36.55,0,0,0-10.21-.63Z"/><path class="cls-1" d="M112.79,61.08c-.29-8.52-.66-17.07-1.08-25.43l-.07-1.22h0c-1.5.08-3,.17-4.49.27s-3.05.21-4.57.29l-2.69.16c-.33-5.56-.49-8.34-.82-13.9l2.71-.16c.7,0,1.4-.07,2.11-.08s1.3,0,2-.08l5-.27c-.07-1.31-.15-2.62-.23-3.91q-.2-3.16-.44-6.34c-.08-1-.12-1.53-.19-2.55,8.17-.42,12.25-.6,20.42-.92-.09,1.12-.14,1.68-.23,2.79-.17,2.09-.32,4.18-.42,6.23-.06,1.13-.12,2.26-.17,3.38l3.94-.32,7-.6,2.88-.26L143.87,34,141,34q-3.66-.06-7.33-.06c-1.57,0-3.14,0-4.71,0-.09,3.84-.15,7.7-.18,11.51,0,4.61,0,9.31,0,14,0,.89,0,1.33,0,2.21-6.41.87-9.61,1.32-16,2.25C112.84,62.76,112.83,62.2,112.79,61.08Z"/><path class="cls-2" d="M127.46,9.56c-.18,2.12-.31,4.22-.42,6.3s-.2,4.15-.27,6.22l7-.57,7-.6.33,10.57q-3.67-.06-7.37-.06c-2.46,0-4.92,0-7.37,0q-.17,7-.21,14t.07,14c-4.32.59-6.48.9-10.79,1.52q-.42-12.87-1-25.47l-.18-3.72-2.73.13c-1.51.08-3,.17-4.54.28s-3,.2-4.53.29l-.52-8.92c.66,0,1.33-.06,2-.07l2.08-.08,7.72-.41q-.15-3.25-.35-6.44c-.13-2.12-.28-4.24-.43-6.37,5.82-.28,8.73-.41,14.55-.65m5.92-5.23-6.12.24c-5.84.23-8.76.36-14.6.65l-5.6.29c.16,2,.24,3.06.39,5.09s.32,4.23.45,6.32c0,.46.06.92.09,1.39l-2.29.12c-.65,0-1.28.06-1.88.08-.76,0-1.5,0-2.21.08l-5.43.32.3,5L97,32.82l.3,5,5.36-.32,4.61-.29,1.79-.12c.41,7.93.77,16,1.06,24.1l.2,5.61,5.84-.86c4.3-.62,6.45-.92,10.76-1.51l4.61-.62c0-1.77,0-2.65-.06-4.42-.05-4.65-.06-9.34,0-13.93,0-3,.07-6,.14-9h2.06c2.43,0,4.88,0,7.29.06l5.65.11-.15-5.27-.29-10.58L146,15.42l-5.77.51c-2.36.21-4.7.42-7,.6l-.86.07,0-.53c.11-2,.26-4.1.43-6.16.19-2.23.29-3.35.48-5.58Z"/><path class="cls-1" d="M195.26,63.07a46.52,46.52,0,0,1-11-1.22A30.42,30.42,0,0,1,176,58.51a22.44,22.44,0,0,1-5.87-5,24.6,24.6,0,0,1-3.64-6A29.35,29.35,0,0,1,164.59,41,42.84,42.84,0,0,1,164,34.7a38.78,38.78,0,0,1,1.71-12.63A25.28,25.28,0,0,1,171.79,12a29,29,0,0,1,10.67-6.69A49.47,49.47,0,0,1,197.52,2.5h.15a37.18,37.18,0,0,1,11,1.68A30.73,30.73,0,0,1,218.06,9a26.71,26.71,0,0,1,6.88,7.76,27,27,0,0,1,3.42,10.41l.35,2.85-3.1-.08c-1.61,0-3.15-.06-4.59-.05s-2.88,0-4.33.06-2.91.11-4.43.2-3.15.21-4.87.35l-3.62.3c.29-1.32.44-2,.74-3.3a30.16,30.16,0,0,0,.54-3.57c.13-1.32.2-2.68.21-4.07,0-.85,0-1.71,0-2.57l0-.62c-1.23-.25-2.57-.45-4-.6-2.21-.23-4.47-.35-6.71-.36-1.58,0-3.13,0-4.61.14-.73,0-1.44.1-2.11.17-.34,2.2-.61,4.46-.79,6.73-.23,2.91-.35,5.91-.34,8.9,0,3.21.13,6.43.38,9.59.2,2.63.49,5.27.84,7.86.41.1.84.19,1.29.28,1.1.23,2.27.42,3.47.58s2.46.29,3.7.38,2.45.15,3.59.16c.81,0,1.58,0,2.32,0h.14c.17-.85.32-1.75.44-2.7a38.31,38.31,0,0,0,.35-4.9,33.39,33.39,0,0,0-.17-3.78c-.13-1.22-.19-1.84-.32-3.06l3.28.34c2,.2,3.84.36,5.61.47s3.61.18,5.46.22c2.41,0,5.09,0,8,0l3.36-.08c-.27,1.23-.4,1.84-.66,3.07a29.92,29.92,0,0,1-2.53,7.33,27.15,27.15,0,0,1-3.79,5.61,25.71,25.71,0,0,1-4.65,4.13,31.13,31.13,0,0,1-5,2.81,35.28,35.28,0,0,1-5.05,1.76,42.12,42.12,0,0,1-4.63,1,39.31,39.31,0,0,1-4,.4C196.9,63.05,196,63.07,195.26,63.07Z"/><path class="cls-2" d="M197.66,5a34.24,34.24,0,0,1,10.1,1.54,27.77,27.77,0,0,1,8.56,4.35,24,24,0,0,1,6.23,7,24.39,24.39,0,0,1,3.12,9.5c-1.64,0-3.2-.06-4.66-.05s-2.94,0-4.41.06-3,.11-4.52.21-3.19.21-4.93.35a34.42,34.42,0,0,0,.6-3.86c.13-1.38.2-2.8.22-4.25,0-.89,0-1.78,0-2.68a24.65,24.65,0,0,0-.21-2.53,40.21,40.21,0,0,0-6.23-1.1,68.13,68.13,0,0,0-7-.38c-1.66,0-3.27,0-4.82.14s-3,.25-4.29.44c-.51,2.86-.87,5.79-1.11,8.78s-.34,6-.33,9.09c0,3.28.14,6.53.4,9.77s.63,6.43,1.11,9.59a25,25,0,0,0,3.14.81c1.16.23,2.38.44,3.65.6s2.55.31,3.86.41,2.57.15,3.78.16c.85,0,1.66,0,2.45,0a19,19,0,0,0,2.22-.21,40.3,40.3,0,0,0,.89-4.68,42.83,42.83,0,0,0,.38-5.18,33.74,33.74,0,0,0-.18-4q3,.33,5.74.49c1.82.11,3.68.18,5.59.22q3.68.06,8.09,0a27.35,27.35,0,0,1-2.3,6.74,24.49,24.49,0,0,1-3.43,5.09A23,23,0,0,1,215.17,55a28.28,28.28,0,0,1-4.59,2.56,32.58,32.58,0,0,1-4.65,1.62,41.46,41.46,0,0,1-4.33.9,36.85,36.85,0,0,1-3.68.38c-1.1,0-2,.07-2.65.07a42.89,42.89,0,0,1-10.33-1.14,27.29,27.29,0,0,1-7.54-3A20,20,0,0,1,172.19,52a22.32,22.32,0,0,1-3.26-5.43,26.31,26.31,0,0,1-1.69-5.94,41,41,0,0,1-.54-5.93,36.59,36.59,0,0,1,1.62-11.87,22.84,22.84,0,0,1,5.49-9.14,26.35,26.35,0,0,1,9.68-6.05A46.51,46.51,0,0,1,197.66,5m0-5h-.31a52.46,52.46,0,0,0-16,3,31.85,31.85,0,0,0-11.66,7.34,27.79,27.79,0,0,0-6.63,11.06,41.11,41.11,0,0,0-1.8,13.37,46.21,46.21,0,0,0,.62,6.62,31.48,31.48,0,0,0,2,7A27.18,27.18,0,0,0,168,55a25.4,25.4,0,0,0,6.56,5.62,32.79,32.79,0,0,0,9,3.64,49,49,0,0,0,11.68,1.31c.76,0,1.72,0,2.93-.08a41.54,41.54,0,0,0,4.23-.43,44.27,44.27,0,0,0,4.93-1,37.31,37.31,0,0,0,5.46-1.9,32.75,32.75,0,0,0,5.48-3.06,28.41,28.41,0,0,0,5.13-4.54,29.45,29.45,0,0,0,4.16-6.13,32.35,32.35,0,0,0,2.75-7.92l1.33-6.13c-2.69,0-4,.07-6.73.14s-5.48.07-7.85,0c-1.83,0-3.62-.11-5.34-.21s-3.58-.26-5.48-.46l-4.19-.44,5.56-.46c1.7-.14,3.33-.25,4.82-.34s2.94-.16,4.35-.2,2.84-.06,4.25-.06,2.92,0,4.51,0l6.18.17c-.28-2.29-.41-3.43-.69-5.71A28.65,28.65,0,0,0,219.79,7a33.76,33.76,0,0,0-10.25-5.23A40.66,40.66,0,0,0,197.69,0Zm-7.51,18.3c1.38-.09,2.83-.13,4.3-.12a62.15,62.15,0,0,1,6.42.34q.85.09,1.65.21v1.08c0,1.32-.08,2.62-.19,3.87a27,27,0,0,1-.5,3.28l-1.38,6.3-.81-.08c.26,2.45.39,3.67.66,6.12a31.23,31.23,0,0,1,.16,3.52,37.29,37.29,0,0,1-.32,4.6c0,.19,0,.37-.07.55h-.17c-1.08,0-2.22-.06-3.39-.15s-2.38-.21-3.55-.37c-.93-.12-1.84-.27-2.71-.43-.25-2-.44-4-.6-6-.23-3.1-.35-6.26-.35-9.41,0-2.93.12-5.86.35-8.72.13-1.54.29-3.08.5-4.6Z"/><path class="cls-1" d="M247.46,62.67a26.92,26.92,0,0,1-7.92-1.5,21.39,21.39,0,0,1-6.87-3.91A19,19,0,0,1,227.84,51a20.32,20.32,0,0,1-1.9-8.52v-.1a25.6,25.6,0,0,1,1.6-8.56,18.32,18.32,0,0,1,4.51-6.85,19.47,19.47,0,0,1,7.36-4.32,27.62,27.62,0,0,1,9.7-1.25h0l1.33.11a23.69,23.69,0,0,1,2.84.48,25.78,25.78,0,0,1,2.84.83c-.1-1-.14-1.47-.24-2.45,8.41-.16,12.61-.2,21-.24-.12,1.11-.18,1.67-.29,2.78-.69,6.63-1.24,13.33-1.62,19.91-.1,1.61-.18,3.13-.25,4.56s-.13,2.84-.17,4.25-.08,2.82-.1,4.25-.1,7-.1,7c-6.95,0-10.42,0-17.37.15l.11-2.14-.52.19a30.41,30.41,0,0,1-4.37,1.21,24.14,24.14,0,0,1-4.68.44h-.09ZM245.11,36c-.22,1.73-.37,3.47-.43,5.21,0,.88,0,1.71,0,2.47s.06,1.54.11,2.3.13,1.53.23,2.31l.06.42c2.13,0,4.25-.09,6.32-.19s4-.25,6.06-.47c0-2.13,0-4.21,0-6.22s-.12-4-.24-6c-2.28-.1-4.6-.12-6.89-.08C248.56,35.74,246.84,35.83,245.11,36Z"/><path class="cls-2" d="M273.92,22.6q-1,10-1.59,20c-.09,1.61-.17,3.14-.24,4.58s-.13,2.87-.17,4.28-.08,2.85-.1,4.29,0,3-.05,4.56c-4.8,0-7.2,0-12,.11,0-.68.05-1.37.06-2.06s0-1.38.07-2.06a15.14,15.14,0,0,1-4.23,2.36,29.29,29.29,0,0,1-4,1.1,21,21,0,0,1-4.14.39,24.41,24.41,0,0,1-7.11-1.34,18.84,18.84,0,0,1-6-3.42,16.72,16.72,0,0,1-4.19-5.49,18,18,0,0,1-1.64-7.52,23.25,23.25,0,0,1,1.46-7.78,15.93,15.93,0,0,1,3.92-6A16.87,16.87,0,0,1,240.34,25a24.76,24.76,0,0,1,8.69-1.1l1.15.1a19.72,19.72,0,0,1,2.48.42,23.36,23.36,0,0,1,3.2,1,17.84,17.84,0,0,1,3.38,1.75c-.16-1.74-.24-2.61-.41-4.34,6-.1,9.05-.13,15.09-.17M242.76,51.19q4.45,0,8.76-.21c2.87-.14,5.72-.39,8.53-.77.07-2.91.08-5.72,0-8.45s-.18-5.51-.37-8.36l-2.16-.1c-2.44-.11-4.9-.15-7.36-.1s-5,.21-7.45.47a59.05,59.05,0,0,0-.73,7.4c0,.93,0,1.81,0,2.62s.06,1.61.12,2.41.14,1.61.25,2.44.24,1.71.41,2.65m37.15-33.62-6.08,0c-6.05,0-9.08.07-15.13.17-2.31,0-3.47.05-5.78.1.06.59.09.88.14,1.46A23,23,0,0,0,250.7,19c-1.08-.11-1.29-.12-1.47-.13a30.79,30.79,0,0,0-10.75,1.39,22.18,22.18,0,0,0-8.37,4.93A20.78,20.78,0,0,0,225,32.92a28.19,28.19,0,0,0-1.73,9.34v.21A22.88,22.88,0,0,0,225.42,52a21.67,21.67,0,0,0,5.49,7.14,24.43,24.43,0,0,0,7.72,4.4,30.07,30.07,0,0,0,8.72,1.65h.2a26.57,26.57,0,0,0,5.22-.49c.5-.09,1-.21,1.54-.34l-.05,1.18,5.62-.08c4.78-.06,7.17-.09,11.95-.11H277c0-2,0-2.94.07-4.9,0-1.59,0-3.1.07-4.54s.06-2.83.1-4.21.11-2.8.18-4.2.16-2.94.26-4.54c.39-6.55.95-13.21,1.65-19.8.23-2.23.35-3.34.59-5.56ZM247.55,38.31c.93-.05,1.86-.09,2.78-.11q2.13,0,4.26,0c.06,1.23.1,2.44.13,3.63s.05,2.59.05,3.92c-1.18.1-2.36.18-3.54.23s-2.51.11-3.78.14l0-.33c0-.72-.08-1.46-.1-2.19s0-1.49,0-2.33c0-1,.11-2,.2-3Z"/><path class="cls-1" d="M277.16,61.12c.12-.81.21-1.61.27-2.39s.12-1.67.17-2.53c.33-5.37.55-10.76.66-16s.12-10.65,0-16c0-1,0-1.48,0-2.46,8.14-.15,12.22-.2,20.37-.25-.06.92-.1,1.37-.16,2.29.23-.08.47-.14.71-.21a35.34,35.34,0,0,1,4.5-.92,26.91,26.91,0,0,1,4.62-.19h.12l.12,0a23.55,23.55,0,0,1,9,2.92,19.08,19.08,0,0,1,3.22,2.4,14.8,14.8,0,0,1,2.82,3.52,15.66,15.66,0,0,1,1.75,4.61,18.93,18.93,0,0,1,.26,5.76,21.32,21.32,0,0,1-.34,2.28c-.14.75-.32,1.53-.53,2.35s-.29,1.16-.49,1.93c-7.54-.12-11.3-.16-18.83-.19.31-1.85.46-2.77.77-4.62.08-.5.15-1,.19-1.53a23.69,23.69,0,0,0,0-3.37c-1.5,0-3,0-4.48,0s-3,.08-4.57.17c-.41,5.57-.62,8.36-1,13.93-.21,3-.41,6-.58,9-.06,1-.08,1.42-.14,2.36-7.53,0-11.29,0-18.81,0C276.91,62.84,277,62.27,277.16,61.12Z"/><path class="cls-2" d="M308.21,25a20.4,20.4,0,0,1,7.86,2.55,16.09,16.09,0,0,1,2.76,2.06,12.12,12.12,0,0,1,2.34,2.92,13.25,13.25,0,0,1,1.48,3.91,16.79,16.79,0,0,1,.23,5,20.13,20.13,0,0,1-.3,2c-.14.7-.31,1.45-.51,2.23-5.43-.08-8.15-.11-13.59-.14.1-.58.2-1.16.29-1.73s.17-1.14.22-1.73a26.88,26.88,0,0,0-.19-6c-2.35-.09-4.69-.12-7-.09s-4.67.15-7,.33l-.5,7c-.22,3.06-.43,6.09-.65,9.1s-.41,6-.57,9.07c-5.31,0-8,0-13.27,0,.13-.86.23-1.71.29-2.55s.13-1.7.18-2.56q.51-8.15.69-16.13T281,24.18c5.88-.1,8.83-.14,14.72-.18-.05.66-.11,1.3-.18,1.94s-.13,1.29-.18,1.95A19,19,0,0,1,300,26a31.5,31.5,0,0,1,4.14-.85,23.89,23.89,0,0,1,4.11-.17m-6.66-6c-2.37,0-3.56,0-5.93,0-5.91,0-8.87.08-14.77.18l-5.35.1c0,2,.05,3,.09,4.93.09,5.3.09,10.65,0,15.89S275.27,50.7,275,56c0,.85-.11,1.68-.17,2.5s-.13,1.47-.24,2.22c-.34,2.3-.51,3.45-.84,5.76l6.13,0c5.28,0,7.93,0,13.22,0l5,0c.11-1.89.17-2.83.28-4.72.17-3,.38-6,.6-9,.27-3.64.41-5.46.68-9.1l.2-2.64,2.13-.06h1.75c0,.23,0,.46-.05.69,0,.45-.09.89-.16,1.32-.11.7-.17,1-.28,1.74-.39,2.31-.58,3.47-1,5.79l6.27,0c5.41,0,8.12.06,13.54.14l4.25.07,1-3.86q.33-1.29.57-2.46c.17-.87.3-1.71.38-2.53a21.32,21.32,0,0,0-.3-6.47,18,18,0,0,0-2-5.31,17.64,17.64,0,0,0-3.3-4.12,21.88,21.88,0,0,0-3.7-2.75,26.43,26.43,0,0,0-10-3.29l-.24,0h-.25a31.09,31.09,0,0,0-5.07.21h-.06c-.58.08-1.19.18-1.82.3l.11-1.49Z"/><path class="cls-1" d="M344.59,70.34a33.63,33.63,0,0,1-8.9-2.17,20.68,20.68,0,0,1-7.34-4.94,19.77,19.77,0,0,1-4.5-7.95A28.53,28.53,0,0,1,323,44.34a19.71,19.71,0,0,1,2.88-9,18.7,18.7,0,0,1,6.1-5.94,22.74,22.74,0,0,1,8.22-2.91,35.15,35.15,0,0,1,9.13-.19,33.28,33.28,0,0,1,9.14,2.26,21.66,21.66,0,0,1,7.43,4.91,19.19,19.19,0,0,1,4.48,7.62,23.38,23.38,0,0,1,.69,10c-.17,1.4-.26,2.1-.43,3.51-4.63-.23-6.95-.33-11.57-.51,4.56.62,6.85.94,11.41,1.6-.55,1.19-.82,1.79-1.36,3a19.72,19.72,0,0,1-4.23,6.08A19.5,19.5,0,0,1,359,68.64a23.71,23.71,0,0,1-7,1.75A36.84,36.84,0,0,1,344.59,70.34Zm-2.9-12.82c1.41.21,2.8.39,4.14.53,1.08.12,2.13.21,3.15.29l.83.06c0-.15,0-.29.05-.44q.08-.59.12-1.17a6.91,6.91,0,0,0,0-.91c-.06-.85-.08-1.28-.14-2.13l-8.39-.26c0,.57,0,1.13.06,1.69Q341.57,56.34,341.69,57.52Zm10-15.17a31.8,31.8,0,0,0-.05-3.66,33.21,33.21,0,0,0-4.48-.78,36.21,36.21,0,0,0-4.56-.19c-.11.63-.22,1.26-.31,1.9s-.15,1.12-.22,1.7C346,41.72,347.87,41.93,351.72,42.35Z"/><path class="cls-2" d="M349.05,28.77a30.6,30.6,0,0,1,8.35,2.05,19.05,19.05,0,0,1,6.49,4.29,16.44,16.44,0,0,1,3.9,6.63,21.13,21.13,0,0,1,.61,9L368.25,52q-14.73-.69-29.48-1.07c0,1.46,0,2.91.08,4.35s.22,2.91.42,4.39q3.24.56,6.29.88c1.12.12,2.2.21,3.24.29s2.13.15,3.25.2q.15-.69.27-1.38c.07-.46.14-.93.19-1.39s.09-.84.12-1.25a8.67,8.67,0,0,0,0-1.25c5.61.74,8.41,1.12,14,1.92a16.56,16.56,0,0,1-8.73,8.68,20.88,20.88,0,0,1-6.15,1.54,33.42,33.42,0,0,1-6.92-.05,31,31,0,0,1-8.15-2,17.87,17.87,0,0,1-6.38-4.29,17.43,17.43,0,0,1-3.92-7,26.26,26.26,0,0,1-.74-10,17.45,17.45,0,0,1,2.52-8,16.19,16.19,0,0,1,5.28-5.14,19.82,19.82,0,0,1,7.23-2.55,31.88,31.88,0,0,1,8.36-.17m-9.91,14.76c6,.62,9,.94,15.07,1.61a35.84,35.84,0,0,0,0-8.35,35.82,35.82,0,0,0-6.73-1.37,40,40,0,0,0-7.1-.1c-.28,1.29-.52,2.6-.7,3.94s-.36,2.76-.52,4.27M349.58,23.8a37.48,37.48,0,0,0-9.89.2,25.53,25.53,0,0,0-9.23,3.28A21.18,21.18,0,0,0,323.55,34a21.92,21.92,0,0,0-3.23,10.08,31.07,31.07,0,0,0,1,11.86,22.49,22.49,0,0,0,5.1,8.93,23.29,23.29,0,0,0,8.29,5.58,36.39,36.39,0,0,0,9.64,2.35,39,39,0,0,0,8.07.06,26.55,26.55,0,0,0,7.77-2,21.76,21.76,0,0,0,11.4-11.22l1.14-2.49.29,0,.12-.91c.47-1,.71-1.56,1.19-2.59l-.85-.13.12-1,.15-1.22a25.82,25.82,0,0,0-.76-11,21.66,21.66,0,0,0-5.07-8.6,24.66,24.66,0,0,0-8.36-5.55,36.83,36.83,0,0,0-9.95-2.45Z"/><path class="cls-1" d="M66.49,115.43c-.16-.59-.38-1.59-.69-3.05s-.62-3.1-1-5-.79-4-1.23-6.32-.87-4.62-1.3-6.93c-.06-.34-.13-.69-.2-1-1.12,9.6-1.66,14.4-2.72,24-7.7,1.19-11.54,1.81-19.22,3.1-.28-.79-.43-1.19-.71-2-1.83-5-3.59-10-5.28-14.67-.71-2-1.47-4.07-2.23-6.22-.2-.55-.3-.83-.49-1.39v.24c0,2.24.06,4.45.08,6.6.06,5,.14,10.34.2,15.92,0,.91,0,1.36,0,2.27-7.15.8-10.73,1.22-17.87,2.1,0-1.17.07-1.75.11-2.92.33-8.73.51-17.54.52-26.18s-.23-17.46-.74-26.28c0-.9-.08-1.34-.13-2.24,10.4-1.77,15.61-2.61,26-4.2Q44.41,75.14,49,89.09c.09-.84.18-1.68.26-2.51.21-2,.4-4.06.6-6.21s.37-4.25.52-6.36.27-4.16.38-6.13.17-3.76.19-5.39c0-.9,0-1.36,0-2.26,10.18-1,15.27-1.39,25.45-2.16.13.94.19,1.41.32,2.34,1.14,8.49,2.49,17.08,4,25.54s3.31,17.1,5.29,25.75c.24,1,.36,1.54.59,2.57-7.85,1.31-11.76,2-19.59,3.39C66.85,116.77,66.73,116.32,66.49,115.43Z"/><path class="cls-2" d="M74.14,60.75q1.76,12.84,4.09,25.64t5.36,25.86c-5.86,1-8.79,1.49-14.64,2.54-.14-.53-.35-1.5-.64-2.91s-.61-3.08-1-5-.78-4-1.21-6.32-.87-4.59-1.29-6.91q-1.55-8.13-3.32-17.92Q59.17,95.31,57,114.89c-6.08,1-9.12,1.44-15.2,2.45q-2.73-7.56-5.24-14.65-1.08-3-2.22-6.21t-2.22-6.31q-1.09-3.08-2-5.87t-1.64-5c0,1.27.08,2.81.12,4.61s.08,3.74.13,5.82.09,4.24.13,6.47.07,4.43.09,6.57q.12,7.56.23,15.93c-5.05.57-7.58.87-12.63,1.49q.52-13.22.57-26.28t-.7-26.43C25,66,29.25,65.35,37.83,64q6.35,18.52,12.46,37.13.85-7.32,1.6-14.35.3-3,.61-6.24T53,74.15q.22-3.18.39-6.17c.12-2,.18-3.81.21-5.49,8.2-.75,12.3-1.1,20.51-1.74M41.51,58.41,37,59.09c-8.61,1.33-12.91,2-21.5,3.47l-4.69.8c.11,1.79.16,2.68.27,4.47.52,8.77.78,17.56.78,26.13s-.16,17.38-.47,26.08c-.09,2.34-.13,3.51-.21,5.86l5.92-.74c5-.61,7.55-.91,12.58-1.48l4.59-.51-.05-4.54c0-2.52,0-5-.07-7.4.92,2.56,1.87,5.17,2.83,7.81.58,1.57.87,2.36,1.44,3.94l4.21-.71c6-1,9.08-1.5,15.14-2.44l3.87-.6c.17-1.53.26-2.29.43-3.82.24-2.15.36-3.23.61-5.39.21,1,.4,2,.58,2.86.31,1.51.55,2.56.72,3.19l1.2,4.47,4.63-.83c5.83-1,8.74-1.55,14.59-2.53l5.3-.88c-.46-2.06-.7-3.09-1.17-5.16-1.95-8.6-3.71-17.23-5.21-25.63s-2.85-17-4-25.43c-.25-1.88-.38-2.82-.63-4.69l-5,.38c-8.24.64-12.36,1-20.59,1.74l-4.8.45c0,1.82,0,2.72,0,4.54,0,1.59-.07,3.36-.18,5.27s-.23,4-.37,6.1c-.06.87-.12,1.75-.19,2.62-1.87-5.62-2.81-8.43-4.71-14-.55-1.61-.82-2.42-1.37-4Z"/><path class="cls-1" d="M106.29,114.85a25.72,25.72,0,0,1-7.75-.73,20.66,20.66,0,0,1-7-3.24,18.91,18.91,0,0,1-5.26-5.82,21,21,0,0,1-2.66-8.29v-.1A26.66,26.66,0,0,1,84.34,88,18.18,18.18,0,0,1,94.67,75.74a25.92,25.92,0,0,1,9.21-2.18h1.29a20.07,20.07,0,0,1,2.77.2,21.67,21.67,0,0,1,2.81.55c-.18-1-.27-1.45-.46-2.42,8.07-1,12.11-1.41,20.19-2.26,0,1.11,0,1.67,0,2.79,0,6.67.1,13.38.36,20,.06,1.61.13,3.13.2,4.56s.15,2.84.24,4.24.2,2.82.31,4.24.59,7,.59,7c-6.67.69-10,1.06-16.67,1.83l-.11-2.15a4.16,4.16,0,0,1-.47.24,29.3,29.3,0,0,1-4.08,1.63,22.73,22.73,0,0,1-4.46.89h-.09Zm-4.84-26.36c0,1.74,0,3.49.09,5.22,0,.89.12,1.72.22,2.46s.2,1.53.32,2.29.28,1.5.45,2.27c0,.14.06.27.09.42,2-.24,4.08-.51,6.06-.8s3.87-.65,5.77-1.06c-.18-2.11-.39-4.18-.63-6.18s-.5-3.93-.81-6c-2.2.12-4.44.32-6.64.59Q103.92,88,101.45,88.49Z"/><path class="cls-2" d="M127.85,72.41q0,10.09.4,20.08c.07,1.61.14,3.14.21,4.58s.15,2.87.25,4.28.2,2.84.32,4.28.25,3,.39,4.54c-4.61.49-6.91.74-11.51,1.26,0-.67-.08-1.36-.13-2.05s-.11-1.37-.14-2a14.53,14.53,0,0,1-3.84,2.75,26.43,26.43,0,0,1-3.71,1.48,19.8,19.8,0,0,1-3.94.79,22.76,22.76,0,0,1-7-.65,18,18,0,0,1-6.11-2.83,16.49,16.49,0,0,1-4.56-5.06,18.49,18.49,0,0,1-2.31-7.33,24.34,24.34,0,0,1,.64-7.89,16.22,16.22,0,0,1,3.2-6.3A16,16,0,0,1,95.8,78,23.16,23.16,0,0,1,104,76.06h1.12a18.5,18.5,0,0,1,2.43.18,20.67,20.67,0,0,1,3.16.67,16.64,16.64,0,0,1,3.42,1.42l-.8-4.29c5.79-.67,8.68-1,14.48-1.62m-27.18,31.46q4.27-.44,8.39-1.05t8.13-1.59c-.22-2.9-.48-5.7-.8-8.41s-.71-5.47-1.17-8.28l-2.08.1q-3.54.18-7.08.62c-2.37.28-4.74.68-7.12,1.18a61.4,61.4,0,0,0,0,7.43c.06.93.13,1.8.23,2.61s.22,1.6.35,2.39.29,1.59.48,2.4.4,1.68.65,2.6m32.45-37-5.83.61c-5.82.62-8.73,1-14.54,1.63l-5.54.66c.11.58.16.87.28,1.45a20,20,0,0,0-2.31-.13c-1.05,0-1.25,0-1.43,0a28.69,28.69,0,0,0-10.2,2.42,20.65,20.65,0,0,0-11.73,13.9,29,29,0,0,0-.76,9.47v.2a23.2,23.2,0,0,0,3,9.26,21.47,21.47,0,0,0,6,6.58,23.22,23.22,0,0,0,7.85,3.64,28,28,0,0,0,8.54.8h.18a25.73,25.73,0,0,0,5-1c.47-.14,1-.31,1.45-.49l.06,1.18,5.39-.63c4.58-.52,6.88-.77,11.47-1.26l4.95-.51c-.16-1.95-.24-2.93-.41-4.88-.13-1.58-.25-3.09-.36-4.52s-.22-2.83-.31-4.21-.16-2.79-.23-4.2-.13-2.94-.19-4.54c-.25-6.55-.36-13.24-.32-19.87,0-2.23,0-3.35,0-5.58ZM104,90.59c.89-.14,1.78-.26,2.67-.37,1.35-.17,2.72-.3,4.09-.41.17,1.21.33,2.42.48,3.6s.29,2.57.42,3.89c-1.12.21-2.25.41-3.38.57s-2.4.35-3.62.51c0-.11,0-.22-.05-.33-.12-.7-.22-1.43-.31-2.17s-.15-1.48-.2-2.32c-.06-1-.09-2-.1-3Z"/><path class="cls-1" d="M158,112.23c.08-1.09.11-1.63.19-2.72.23-3.46.4-6.92.49-10.27s.11-6.8.05-10.2l-.08-3.5c0-.39,0-.79,0-1.19l-.81,0c-1,0-2.09,0-3.16,0q-1.89,0-3.87.18c0,1,0,2.06,0,3,0,1.63,0,3.24.07,4.84,0,1.18.07,2.37.13,3.59s.13,2.51.22,3.89.22,2.89.35,4.51.3,3.38.5,5.31c.1,1.07.16,1.6.26,2.67-6.92.18-10.38.29-17.3.55l-.1-2.5c-.1-2.8-.21-5.27-.31-7.42s-.22-4.11-.33-5.91-.25-3.51-.39-5.14-.32-3.35-.51-5.15c-.25-2.36-.37-3.55-.62-5.92-.23-2.13-1.08-9.87-1.08-9.87,7.8-.75,11.7-1.11,19.51-1.76,0,1.33-.06,2-.11,3.33l.53-.21A33.07,33.07,0,0,1,156,71a27.45,27.45,0,0,1,4.62-.65h0a17.69,17.69,0,0,1,5.76.75,14.57,14.57,0,0,1,4.55,2.31,14.87,14.87,0,0,1,3.3,3.51,20.75,20.75,0,0,1,2.1,4.12,22.87,22.87,0,0,1,1.18,4.57,32.63,32.63,0,0,1,.36,4.6,93,93,0,0,1-.44,9.78,73.43,73.43,0,0,1-1.71,10.06c-.18.76-.28,1.15-.46,1.91C168.38,112,164.93,112.08,158,112.23Z"/><path class="cls-2" d="M148.51,72c-.06,2-.09,3-.16,5a18.66,18.66,0,0,1,4.24-2.29,31.6,31.6,0,0,1,4-1.25,24.64,24.64,0,0,1,4.15-.58,15,15,0,0,1,4.81.62,11.89,11.89,0,0,1,6.47,4.8,17.63,17.63,0,0,1,1.85,3.62A20.29,20.29,0,0,1,175,86a29.12,29.12,0,0,1,.35,4.25,90.88,90.88,0,0,1-.42,9.53,69.94,69.94,0,0,1-1.63,9.72c-5,.05-7.49.09-12.48.18.24-3.49.42-7,.52-10.36s.13-6.85.06-10.32l-.06-3.5c0-1.16-.07-2.32-.14-3.5-1.1-.09-2.19-.15-3.26-.16s-2.16,0-3.25,0q-3.12.08-6.4.37c0,1.93,0,3.71,0,5.35s0,3.27.08,4.89c0,1.19.08,2.4.14,3.63s.13,2.55.23,4,.22,2.92.36,4.55.31,3.41.51,5.35c-4.82.13-7.23.2-12.05.38-.1-2.81-.2-5.3-.3-7.45s-.21-4.14-.32-6-.24-3.55-.39-5.19-.31-3.38-.5-5.19-.39-3.79-.61-5.93-.49-4.59-.79-7.37c5.57-.53,8.35-.78,13.92-1.26M154,66.51l-5.89.49c-5.59.48-8.39.73-14,1.26l-5.26.51c.22,2,.33,3,.56,5,.3,2.78.57,5.23.81,7.37.25,2.37.38,3.55.63,5.92.19,1.74.36,3.46.51,5.11s.28,3.28.4,5.07.23,3.76.34,5.88.22,4.65.32,7.39l.2,5,5.08-.19c4.8-.17,7.2-.24,12-.38l5.47-.13c-.21-2.14-.32-3.21-.53-5.35-.18-2-.35-3.72-.48-5.28s-.24-3.13-.33-4.47-.17-2.67-.22-3.83-.09-2.39-.12-3.55c0-1.57-.06-3.18-.06-4.78v-.65l1.34,0,1.38,0,.05,2.26c.07,3.37.07,6.76,0,10.09s-.25,6.74-.48,10.17c-.14,2.18-.21,3.26-.36,5.44l5.55-.12c5-.09,7.46-.13,12.43-.18l4,0,.93-3.81A75.27,75.27,0,0,0,180,100.23a97.66,97.66,0,0,0,.48-10,34.48,34.48,0,0,0-.39-4.94,25.05,25.05,0,0,0-1.3-5.06,22.69,22.69,0,0,0-2.34-4.61,16.84,16.84,0,0,0-3.87-4.12,17.24,17.24,0,0,0-5.35-2.74,20.72,20.72,0,0,0-6.56-.87h-.19a32,32,0,0,0-5,.69h-.06c-.5.11-1,.25-1.52.4,0-1,0-1.48.09-2.47Z"/><path class="cls-1" d="M199.05,112.51a25.41,25.41,0,0,1-7.69-1.23,20.52,20.52,0,0,1-6.75-3.69,19,19,0,0,1-4.86-6.15A20.85,20.85,0,0,1,177.64,93v-.1a26.59,26.59,0,0,1,1.27-8.61A18.11,18.11,0,0,1,190,72.73a25.94,25.94,0,0,1,9.32-1.57h0c.14,0,.56,0,1.29.07a21.86,21.86,0,0,1,2.76.38,23.37,23.37,0,0,1,2.76.74l-.3-2.45c8.11-.43,12.17-.61,20.29-.93-.07,1.11-.11,1.67-.19,2.78-.46,6.65-.78,13.37-.95,20,0,1.61-.08,3.14-.1,4.57s0,2.85,0,4.25,0,2.82,0,4.25.12,7,.12,7c-6.7.25-10.05.4-16.74.73l0-2.14-.49.2a30,30,0,0,1-4.18,1.36,22.58,22.58,0,0,1-4.5.59h-.09ZM195.94,85.9c-.16,1.73-.24,3.48-.25,5.21,0,.89,0,1.72.06,2.48s.1,1.53.17,2.29.18,1.52.3,2.3c0,.14,0,.28.07.42,2.05-.1,4.09-.23,6.09-.4s3.9-.39,5.83-.67c-.05-2.13-.12-4.2-.23-6.21s-.24-4-.42-6c-2.2,0-4.44,0-6.66.15C199.27,85.56,197.61,85.7,195.94,85.9Z"/><path class="cls-2" d="M223.34,71.58q-.69,10.08-.92,20.06c0,1.62-.07,3.15-.1,4.59s0,2.87,0,4.29,0,2.85.05,4.29,0,3,.08,4.56c-4.62.18-6.93.28-11.56.5,0-.68,0-1.36,0-2.06s0-1.37,0-2a14.75,14.75,0,0,1-4,2.49,27.28,27.28,0,0,1-3.8,1.24,19.67,19.67,0,0,1-4,.52,22.44,22.44,0,0,1-6.89-1.11,17.86,17.86,0,0,1-5.91-3.22,16.33,16.33,0,0,1-4.21-5.35,18.38,18.38,0,0,1-1.83-7.46A24.29,24.29,0,0,1,181.38,85a15.69,15.69,0,0,1,9.61-10,23.31,23.31,0,0,1,8.35-1.39l1.12.06A20.91,20.91,0,0,1,206,74.94a16,16,0,0,1,3.32,1.65c-.21-1.74-.31-2.6-.52-4.34,5.82-.29,8.73-.43,14.56-.67m-29.19,29.61c2.87-.1,5.68-.27,8.45-.5s5.51-.58,8.21-1q0-4.36-.25-8.44c-.14-2.72-.34-5.51-.62-8.35l-2.08,0q-3.54,0-7.11.15c-2.37.14-4.77.37-7.18.71a63.43,63.43,0,0,0-.46,7.42c0,.94,0,1.81.06,2.62s.11,1.61.19,2.41.19,1.61.32,2.43.29,1.7.47,2.63M229,66.36l-5.86.23c-5.85.24-8.77.37-14.61.67-2.23.11-3.35.17-5.57.3.07.58.11.87.18,1.46a20.13,20.13,0,0,0-2.3-.28c-1-.07-1.24-.08-1.42-.08A28.7,28.7,0,0,0,189,70.41a21.42,21.42,0,0,0-7.92,5.19,21.06,21.06,0,0,0-4.68,7.92,28.86,28.86,0,0,0-1.38,9.39v.21a23.26,23.26,0,0,0,2.38,9.43,21.77,21.77,0,0,0,5.52,7,23.24,23.24,0,0,0,7.59,4.14A28,28,0,0,0,199,115h.18a25.51,25.51,0,0,0,5-.66c.48-.11,1-.24,1.48-.39v1.18c2.16-.12,3.25-.17,5.41-.27,4.61-.23,6.91-.33,11.52-.51l5-.19c0-2-.05-2.93-.08-4.89,0-1.59-.06-3.11-.08-4.54s0-2.83,0-4.21,0-2.8,0-4.21.07-2.94.11-4.55c.18-6.55.51-13.23,1-19.84l.4-5.57Zm-30.59,21.8c.9-.08,1.8-.15,2.68-.19,1.37-.08,2.75-.13,4.12-.15.09,1.23.17,2.44.23,3.63s.13,2.58.17,3.91c-1.13.14-2.27.26-3.41.35s-2.41.19-3.64.26l0-.33c-.07-.71-.13-1.45-.17-2.18s0-1.49,0-2.33,0-2,.1-3Z"/><path class="cls-1" d="M245.68,133.24a28.71,28.71,0,0,1-7.82-1.35,21.58,21.58,0,0,1-6.28-3.26,17.84,17.84,0,0,1-4.41-4.9A15.78,15.78,0,0,1,225,117.5c-.13-1.07-.2-1.61-.33-2.68,8.51-.36,12.76-.51,21.28-.74l-1.58,3.6a4.32,4.32,0,0,0-.33,1.19,15.57,15.57,0,0,0-.15,1.7c0,.38,0,.78,0,1.19a46.26,46.26,0,0,0,7.71-.35c.23-2,.45-3.92.64-5.85.13-1.22.25-2.43.36-3.65h0a33,33,0,0,1-3.61.73,24.45,24.45,0,0,1-3.87.24h0a18.85,18.85,0,0,1-4.74-.82,20.15,20.15,0,0,1-4.46-2,21.89,21.89,0,0,1-4-3.08,20.34,20.34,0,0,1-3.27-4.22,20.93,20.93,0,0,1-2.11-5.19,21.57,21.57,0,0,1-.66-6.13,27.4,27.4,0,0,1,1.58-8.77,20.36,20.36,0,0,1,4.22-7,18.23,18.23,0,0,1,6.74-4.51,21,21,0,0,1,8.73-1.34,24.84,24.84,0,0,1,4,.56,30.58,30.58,0,0,1,3.69,1.11h0l.1-2.35c7.63.82,11.45,1.25,19.06,2.17-.11,1-.16,1.47-.27,2.45-.79,7.12-1.44,13.3-1.94,18.38s-.89,9.29-1.18,12.55c-.34,3.85-.59,7-.8,9.51a19.13,19.13,0,0,1-8.46,14.58,24.06,24.06,0,0,1-7.42,3.3,35.66,35.66,0,0,1-8.15,1.12h-.16ZM246,98.71c.93.07,1.83.13,2.72.17,1.28.05,2.51.08,3.66.09h1.34q.13-2.07.27-4.11c.13-2.09.25-4.2.34-6.31,0-1.1.1-2.18.13-3.26l0-.89h-.07l-2.67-.09c-.87,0-1.77,0-2.69,0l-2.95.08-1.14,0c0,.32-.06.63-.08,1-.07,1-.13,2-.17,3-.08,2-.08,4.11,0,6.12.06,1.35.15,2.72.27,4.1Z"/><path class="cls-2" d="M257.5,72c5.48.6,8.21.92,13.68,1.57q-1.15,10.74-1.9,18.41t-1.17,12.58q-.5,5.78-.78,9.53a16.57,16.57,0,0,1-7.34,12.7,21.57,21.57,0,0,1-6.64,2.95,32.82,32.82,0,0,1-7.57,1,26,26,0,0,1-7.12-1.22,19,19,0,0,1-5.54-2.87,15.32,15.32,0,0,1-3.78-4.19,13.31,13.31,0,0,1-1.79-5.26c5.81-.23,8.71-.33,14.52-.5a7.13,7.13,0,0,0-.52,1.84c-.08.63-.13,1.27-.16,1.93s0,1.18,0,1.79a6.77,6.77,0,0,0,.38,1.85,8.33,8.33,0,0,0,1,.11l1,0a48.79,48.79,0,0,0,10.09-.66q.51-3.91.9-7.79c.27-2.58.52-5.16.77-7.76a15.39,15.39,0,0,1-3.6,1.44,30.37,30.37,0,0,1-3.33.68,22.7,22.7,0,0,1-3.46.21,15.94,15.94,0,0,1-4-.7,18.24,18.24,0,0,1-3.89-1.74,19.51,19.51,0,0,1-3.5-2.72,16.75,16.75,0,0,1-2.85-3.68A18.16,18.16,0,0,1,229.06,97a19,19,0,0,1-.57-5.45,24.85,24.85,0,0,1,1.45-8,17.78,17.78,0,0,1,3.72-6.15,15.69,15.69,0,0,1,5.79-3.87,18.85,18.85,0,0,1,7.63-1.15,23.12,23.12,0,0,1,3.52.5,27.86,27.86,0,0,1,3.35,1,14.7,14.7,0,0,1,3.45,1.83c0-.61,0-1.23.05-1.86s0-1.26.05-1.87m-8.85,29.41c1.33.06,2.58.09,3.76.1s2.43,0,3.76-.11c.15-2.13.3-4.24.43-6.35s.26-4.22.36-6.35c.05-1.1.1-2.2.14-3.29s.06-2.18.07-3.28a11.82,11.82,0,0,0-1.32-.14l-1.28-.06c-.92,0-1.84-.07-2.74-.08s-1.83,0-2.79,0l-3,.09c-1.06,0-2.19.09-3.42.16-.11,1.08-.2,2.12-.28,3.14s-.13,2-.17,3.11q-.12,3.19,0,6.31t.48,6.3c1.15.12,2.21.21,3.17.28s1.9.14,2.81.17m3.85-35c0,.69-.05,1-.08,1.74L251.8,68a28.91,28.91,0,0,0-4.4-.62h-.12a24.37,24.37,0,0,0-9.83,1.52A20.71,20.71,0,0,0,229.77,74,22.66,22.66,0,0,0,225,81.85a30.16,30.16,0,0,0-1.71,9.53,24.57,24.57,0,0,0,.75,6.82,23.88,23.88,0,0,0,2.38,5.8,22.82,22.82,0,0,0,3.7,4.76,24.84,24.84,0,0,0,4,3.19c-2.74.09-4.11.14-6.85.25l-5.5.24c.27,2.14.41,3.22.68,5.36A18.12,18.12,0,0,0,225,125a20.22,20.22,0,0,0,5,5.59,24.13,24.13,0,0,0,7,3.65,31.33,31.33,0,0,0,8.5,1.48h.32a38.44,38.44,0,0,0,8.73-1.2,26.55,26.55,0,0,0,8.2-3.65,21.62,21.62,0,0,0,9.58-16.35v-.1c.19-2.47.46-5.66.81-9.48.29-3.24.7-7.45,1.21-12.53s1.17-11.24,2-18.35l.55-4.9-5.13-.62c-5.49-.65-8.24-1-13.73-1.56-2.23-.25-3.35-.37-5.58-.6Zm-5.07,20.45,1.74,0c.89,0,1.76,0,2.58,0h.1c0,.53,0,1.07-.07,1.61-.09,2.09-.2,4.2-.33,6.27,0,.59-.07,1.18-.11,1.76-.79,0-1.61,0-2.47-.07l-1.43-.08c0-.62-.07-1.25-.1-1.87-.08-1.94-.07-3.93,0-5.92,0-.55.05-1.11.08-1.66Zm.81,28.4c.37,0,.74-.08,1.11-.13l.42-.06,0,.25c-.12,1.27-.26,2.55-.4,3.83-.92.08-1.85.13-2.77.15v-.09a1.79,1.79,0,0,1,.15-.52l1.51-3.43Z"/><path class="cls-1" d="M294.26,117a31.11,31.11,0,0,1-8.63-1.86,19.68,19.68,0,0,1-7.22-4.68,20,20,0,0,1-4.58-7.79,29.74,29.74,0,0,1-1.14-10.91,20.34,20.34,0,0,1,2.52-9.11,18.62,18.62,0,0,1,5.72-6.14,21.45,21.45,0,0,1,7.85-3.19,32.56,32.56,0,0,1,8.81-.5,31.75,31.75,0,0,1,8.89,1.93,20.73,20.73,0,0,1,7.3,4.66,18.88,18.88,0,0,1,4.54,7.45,24.23,24.23,0,0,1,.95,10l-.33,3.53c-4.47-.06-6.7-.08-11.17-.11,4.42.46,6.63.7,11.05,1.2l-1.23,3a19.74,19.74,0,0,1-3.91,6.22,18.9,18.9,0,0,1-5.52,4.07,22,22,0,0,1-6.67,2A34,34,0,0,1,294.26,117Zm-3.15-12.71c1.37.16,2.71.29,4,.39,1.05.08,2.06.14,3,.18l.81,0c0-.15,0-.29,0-.44,0-.39.05-.79.07-1.17a5.7,5.7,0,0,0,0-.92l-.2-2.11c-3.24,0-4.86,0-8.1,0,0,.56.07,1.12.11,1.68C290.93,102.68,291,103.46,291.11,104.24Zm9.25-15.5a31.63,31.63,0,0,0-.15-3.66,31.64,31.64,0,0,0-4.35-.62,33.92,33.92,0,0,0-4.4,0c-.09.64-.17,1.27-.24,1.91s-.12,1.13-.17,1.71C294.77,88.31,296.64,88.45,300.36,88.74Z"/><path class="cls-2" d="M297.4,75.26A28.81,28.81,0,0,1,305.52,77a18,18,0,0,1,6.38,4.06,16.47,16.47,0,0,1,4,6.49,21.86,21.86,0,0,1,.84,9l-.11,1.23q-14.24-.19-28.47-.06c0,1.46.08,2.91.2,4.35s.29,2.9.52,4.38c2.1.29,4.14.5,6.1.65,1.08.08,2.12.15,3.13.19s2.06.07,3.14.09c.09-.47.16-.93.22-1.4s.11-.93.15-1.4.06-.83.08-1.24a8.91,8.91,0,0,0,0-1.26c5.43.55,8.15.83,13.57,1.43a17,17,0,0,1-3.4,5.45,16.17,16.17,0,0,1-4.78,3.53,19.6,19.6,0,0,1-5.89,1.76,30.7,30.7,0,0,1-6.67.18,27.82,27.82,0,0,1-7.91-1.7,16.81,16.81,0,0,1-6.28-4.07,17.2,17.2,0,0,1-4-6.82,27,27,0,0,1-1-10,17.81,17.81,0,0,1,2.21-8,15.91,15.91,0,0,1,4.95-5.32,18.74,18.74,0,0,1,6.89-2.79,29.56,29.56,0,0,1,8.07-.46m-9.14,15.09c5.83.41,8.75.63,14.58,1.09a36,36,0,0,0-.26-8.34A32.39,32.39,0,0,0,296.05,82a37.48,37.48,0,0,0-6.85.14q-.36,2-.57,4c-.14,1.34-.27,2.77-.37,4.29m9.52-20.08a35.57,35.57,0,0,0-9.55.55,24.16,24.16,0,0,0-8.81,3.59,20.9,20.9,0,0,0-6.48,7,22.65,22.65,0,0,0-2.83,10.19,32,32,0,0,0,1.28,11.82,21.72,21.72,0,0,0,13.33,14,33.68,33.68,0,0,0,9.36,2,36.51,36.51,0,0,0,7.78-.22A25,25,0,0,0,309.3,117a21.7,21.7,0,0,0,6.26-4.6,22.53,22.53,0,0,0,4.42-7c.41-1,.62-1.52,1-2.53h.29l.08-.91c.43-1.06.65-1.58,1.08-2.63l-.82-.1.09-1,.11-1.23a26.68,26.68,0,0,0-1-11,21.4,21.4,0,0,0-5.13-8.41,23.29,23.29,0,0,0-8.23-5.26,34.26,34.26,0,0,0-9.66-2.11Z"/><path class="cls-1" d="M318,115.37c.14-.79.25-1.6.34-2.38s.17-1.66.24-2.51c.5-5.36.89-10.75,1.17-16s.47-10.64.56-16l.05-2.46c7.87.07,11.81.13,19.7.31-.1.92-.14,1.37-.24,2.28l.7-.18a33.72,33.72,0,0,1,4.38-.8,24.86,24.86,0,0,1,4.47-.06h.12l.11,0a22.06,22.06,0,0,1,8.56,3.17,18.17,18.17,0,0,1,3,2.48,14.78,14.78,0,0,1,2.61,3.6,16,16,0,0,1,1.53,4.65,19.74,19.74,0,0,1,.06,5.77,22.26,22.26,0,0,1-.41,2.27c-.17.73-.37,1.51-.6,2.33l-.53,1.91c-7.28-.33-10.92-.47-18.19-.7l.9-4.6c.09-.5.17-1,.23-1.52a25.33,25.33,0,0,0,.14-3.37c-1.45-.07-2.89-.12-4.33-.14s-2.93,0-4.42,0l-1.45,13.89c-.31,3-.61,6-.87,9-.09.94-.13,1.42-.21,2.36-7.27-.26-10.9-.37-18.17-.53C317.7,117.09,317.8,116.52,318,115.37Z"/><path class="cls-2" d="M349.2,80.09a19.23,19.23,0,0,1,7.51,2.77,14.47,14.47,0,0,1,2.6,2.13,12.07,12.07,0,0,1,2.16,3,13.2,13.2,0,0,1,1.3,4,17.24,17.24,0,0,1,.05,5,20.23,20.23,0,0,1-.36,2c-.16.7-.35,1.44-.56,2.21-5.26-.23-7.88-.33-13.13-.51.11-.58.23-1.15.34-1.71s.2-1.14.27-1.72a27.54,27.54,0,0,0,0-6Q346,91,342.63,91c-2.24,0-4.51,0-6.8.13-.29,2.79-.43,4.18-.72,7-.31,3.06-.62,6.08-.93,9.08s-.59,6-.86,9c-5.12-.18-7.69-.25-12.81-.38.16-.86.28-1.7.37-2.54s.17-1.69.26-2.56q.75-8.11,1.2-16.09t.59-16.05c5.69.07,8.54.11,14.24.23-.07.65-.15,1.3-.24,1.94s-.17,1.28-.23,1.94a18,18,0,0,1,4.49-1.8,31.94,31.94,0,0,1,4-.73,22.17,22.17,0,0,1,4-.06M343,73.93l-5.73-.13c-5.72-.12-8.57-.17-14.28-.23l-5.18,0c0,2,0,3-.07,4.92-.09,5.31-.27,10.65-.54,15.89s-.65,10.59-1.13,15.91q-.11,1.26-.24,2.49c-.07.72-.18,1.47-.31,2.21-.4,2.29-.6,3.44-1,5.73l5.91.14c5.11.13,7.66.2,12.77.37l4.81.18c.17-1.89.26-2.83.43-4.72.27-3,.57-6,.88-9l1-9.07.28-2.63c.69,0,1.38,0,2.06,0l1.69,0c0,.23,0,.46-.07.69-.05.44-.11.88-.2,1.31l-.33,1.73c-.45,2.3-.67,3.46-1.12,5.76l6.05.2c5.23.18,7.85.28,13.09.51l4.1.19c.43-1.54.65-2.3,1.08-3.84.24-.84.45-1.67.63-2.44a24.2,24.2,0,0,0,.45-2.51,21.75,21.75,0,0,0-.06-6.47,18.33,18.33,0,0,0-1.77-5.37,17.14,17.14,0,0,0-3.05-4.21,20.82,20.82,0,0,0-3.48-2.84,24.78,24.78,0,0,0-9.6-3.56l-.23,0-.23,0a29,29,0,0,0-4.92.07h-.05c-.57.06-1.16.14-1.78.24l.16-1.49Z"/></g></g></svg>